<svg xml:space="preserve" viewBox="18.432000000000002 38.912 759.808 172.032" y="0px" x="0px" xmlns:xlink="http://www.w3.org/1999/xlink" xmlns="http://www.w3.org/2000/svg" id="Layer_1" version="1.1" style="max-height: 500px" width="759.808" height="172.032">
<metadata>
	
		
		
	
</metadata>
<g>
	<g>
		<path d="M68.739,174.423c4.702-3.587,7.694-5.571,10.32-10.795&#10;&#9;&#9;&#9;c1.129-2.264,1.954-5.502,1.954-7.87c0-1.915-0.092-3.343-0.733-4.736c-0.733-1.602-2.29-2.855-4.305-2.646&#10;&#9;&#9;&#9;c-1.343,0.139-2.961,0.696-3.634,1.532c-0.366,0.452-0.701,1.079-0.916,1.601c-0.184,0.453,0,1.149,0.733,1.184&#10;&#9;&#9;&#9;c0.274,0,0.885-0.278,1.221-0.312c1.588-0.21,2.901,1.253,2.901,2.82c0,1.532-1.191,3.134-3.083,3.134&#10;&#9;&#9;&#9;c-1.955,0-3.603-1.532-3.664-3.726c-0.061-2.333,1.282-4.701,3.174-5.886c1.007-0.731,3.206-1.393,4.274-1.393&#10;&#9;&#9;&#9;c1.955,0,3.695,0.384,5.527,2.125c1.832,1.74,2.442,3.168,2.717,6.094c0.397,4.145-2.626,9.576-5.557,12.328&#10;&#9;&#9;&#9;c-2.747,2.576-6.961,5.188-10.747,7.278L68.739,174.423z" clip-rule="evenodd" fill-rule="evenodd"/>
		<path d="M88.188,148.961c1.008,0,1.649,0.824,1.649,1.649&#10;&#9;&#9;&#9;c0,0.854-0.641,1.678-1.649,1.678c-1.069,0-1.679-0.824-1.679-1.678C86.509,149.785,87.119,148.961,88.188,148.961z" clip-rule="evenodd" fill-rule="evenodd"/>
		<path d="M88.188,157.808c1.008,0,1.649,0.825,1.649,1.649c0,0.855-0.641,1.68-1.649,1.68&#10;&#9;&#9;&#9;c-1.069,0-1.679-0.824-1.679-1.68C86.509,158.633,87.119,157.808,88.188,157.808z" clip-rule="evenodd" fill-rule="evenodd"/>
	</g>
	<g>
		<g>
			<g>
				<polygon points="716.389,104.059 57.129,104.059 57.129,102.798 716.389,102.798 716.389,104.059"/>
			</g>
			<g>
				<polygon points="716.389,112.774 57.129,112.774 57.129,111.514 716.389,111.514 716.389,112.774"/>
			</g>
			<g>
				<polygon points="716.389,95.343 57.129,95.343 57.129,94.082 716.389,94.082 716.389,95.343"/>
			</g>
			<g>
				<polygon points="716.389,86.627 57.129,86.627 57.129,85.366 716.389,85.366 716.389,86.627"/>
			</g>
			<g>
				<polygon points="57.76,180.919 56.499,180.919 56.499,76.651 716.389,76.651 716.389,77.912 57.76,77.912 57.76,180.919"/>
			</g>
		</g>
		<g>
			<g>
				<polygon points="716.389,172.833 57.129,172.833 57.129,171.573 716.389,171.573 716.389,172.833"/>
			</g>
			<g>
				<polygon points="716.389,181.549 57.129,181.549 57.129,180.289 716.389,180.289 716.389,181.549"/>
			</g>
			<g>
				<polygon points="716.389,164.118 57.129,164.118 57.129,162.857 716.389,162.857 716.389,164.118"/>
			</g>
			<g>
				<polygon points="716.389,155.402 57.129,155.402 57.129,154.142 716.389,154.142 716.389,155.402"/>
			</g>
			<g>
				<polygon points="716.389,146.687 57.129,146.687 57.129,145.426 716.389,145.426 716.389,146.687"/>
			</g>
		</g>
	</g>
	<path d="M81.525,93.979c0.457-0.07,0.914-0.106,1.373-0.106&#10;&#9;&#9;c4.471-0.035,7.604,3.979,7.569,8.52c0,3.767-2.253,6.549-5.598,8.169l1.408,7.146c0.105,0.598,0.105,1.126,0.105,1.619&#10;&#9;&#9;c0,3.59-2.253,5.915-5.984,6.302c-2.923,0.316-6.268-1.69-6.584-4.859c-0.211-2.112,1.232-4.294,3.274-4.542&#10;&#9;&#9;c1.866-0.21,3.556,1.444,3.626,3.381c0.105,2.709-2.569,3.59-3.59,3.343c0.105,1.198,2.182,1.654,3.168,1.55&#10;&#9;&#9;c3.273-0.387,4.823-2.395,4.928-5.247c0-0.774-0.07-1.689-0.281-2.569l-1.198-5.633c-1.126,0.317-2.217,0.458-3.273,0.458&#10;&#9;&#9;c-6.056,0-10.984-5.14-11.478-11.793c-0.527-6.866,5-11.97,9.26-16.335c-0.634-2.606-1.021-5.142-1.021-7.816&#10;&#9;&#9;c0-3.204,1.478-9.752,4.823-10.984c1.443-0.563,4.119,6.513,4.048,10.421c-0.069,4.929-2.323,9.646-5.773,13.061L81.525,93.979z&#10;&#9;&#9; M81.207,98.169c-1.971,0.598-3.661,2.641-3.625,4.824c0,1.865,1.231,3.062,2.781,3.801c0.176,0.071,0.246,0.212,0.246,0.354&#10;&#9;&#9;c0,0.21-0.246,0.387-0.492,0.352c-2.676-0.916-4.578-3.521-4.542-6.479c0-2.887,2.289-5.808,4.857-6.759l-1.055-5.316&#10;&#9;&#9;c-3.733,3.309-7.851,7.252-7.887,12.709c0,5.493,4.648,8.871,9.683,8.661c0.809-0.035,1.583-0.176,2.359-0.423L81.207,98.169z&#10;&#9;&#9; M84.657,72.047c-0.035-1.126-0.704-2.253-1.937-2.253c-2.957,0.598-4.013,5.667-4.083,8.202c0,1.479,0.246,2.993,0.598,4.437&#10;&#9;&#9;C82.053,80.003,84.799,76.025,84.657,72.047z M84.657,109.541c2.112-1.127,3.557-3.416,3.45-5.951&#10;&#9;&#9;c-0.246-3.238-2.64-5.598-5.773-5.563L84.657,109.541z" clip-rule="evenodd" fill-rule="evenodd"/>
	<g>
		<path d="M54.208,179.558v1.969c-1.795-0.413-3.439-1.293-4.932-2.644c-1.493-1.35-2.774-3.009-3.845-4.978&#10;&#9;&#9;&#9;s-1.909-4.163-2.515-6.582c-0.606-2.419-0.908-4.904-0.908-7.453c0-1.237,0.075-2.7,0.227-4.388&#10;&#9;&#9;&#9;c0.151-1.687,0.325-3.375,0.52-5.063c0.195-1.688,0.368-3.282,0.519-4.781c0.151-1.5,0.227-2.681,0.227-3.543&#10;&#9;&#9;&#9;c0-1.313-0.173-2.625-0.519-3.938c-0.346-1.313-0.838-2.512-1.476-3.6c-0.639-1.087-1.412-2.015-2.32-2.784&#10;&#9;&#9;&#9;c-0.909-0.768-1.936-1.284-3.083-1.547v-2.307c1.146-0.262,2.179-0.768,3.099-1.519c0.919-0.75,1.697-1.668,2.336-2.757&#10;&#9;&#9;&#9;c0.638-1.087,1.125-2.287,1.46-3.599c0.335-1.313,0.503-2.645,0.503-3.994c0-0.9-0.076-2.091-0.227-3.573&#10;&#9;&#9;&#9;c-0.151-1.481-0.324-3.056-0.519-4.725c-0.195-1.668-0.368-3.347-0.52-5.034c-0.151-1.688-0.227-3.169-0.227-4.444&#10;&#9;&#9;&#9;c0-2.549,0.302-5.034,0.908-7.453c0.605-2.419,1.444-4.604,2.515-6.553s2.352-3.6,3.845-4.951c1.493-1.35,3.136-2.23,4.932-2.644&#10;&#9;&#9;&#9;v1.969c-1.276,0.526-2.374,1.229-3.293,2.109c-0.92,0.882-1.676,1.894-2.271,3.038c-0.595,1.144-1.038,2.382-1.33,3.712&#10;&#9;&#9;&#9;c-0.292,1.332-0.438,2.71-0.438,4.135c0,0.976,0.075,2.25,0.227,3.825c0.151,1.576,0.319,3.216,0.503,4.922&#10;&#9;&#9;&#9;c0.184,1.707,0.351,3.385,0.503,5.035c0.151,1.651,0.227,3.057,0.227,4.219c0,1.876-0.2,3.75-0.6,5.625&#10;&#9;&#9;&#9;c-0.4,1.875-1.001,3.666-1.801,5.372c-0.801,1.707-1.801,3.272-3.001,4.697c-1.201,1.426-2.59,2.625-4.169,3.601&#10;&#9;&#9;&#9;c1.557,0.975,2.931,2.203,4.121,3.684c1.189,1.482,2.19,3.094,3.001,4.838c0.811,1.744,1.421,3.563,1.833,5.457&#10;&#9;&#9;&#9;c0.411,1.894,0.616,3.76,0.616,5.597c0,1.163-0.076,2.569-0.227,4.219c-0.152,1.651-0.319,3.329-0.503,5.035&#10;&#9;&#9;&#9;c-0.184,1.706-0.352,3.347-0.503,4.922c-0.152,1.576-0.227,2.85-0.227,3.825c0,1.425,0.146,2.803,0.438,4.134&#10;&#9;&#9;&#9;s0.735,2.569,1.33,3.713c0.595,1.144,1.352,2.156,2.271,3.038C51.834,178.272,52.932,178.996,54.208,179.558z"/>
	</g>
</g>
<g>
	<g>
		<path d="M68.739,332.801c4.702-3.587,7.694-5.571,10.32-10.795&#10;&#9;&#9;&#9;c1.129-2.264,1.954-5.502,1.954-7.87c0-1.915-0.092-3.343-0.733-4.736c-0.733-1.602-2.29-2.855-4.305-2.646&#10;&#9;&#9;&#9;c-1.343,0.139-2.961,0.696-3.634,1.532c-0.366,0.452-0.701,1.079-0.916,1.601c-0.184,0.453,0,1.149,0.733,1.184&#10;&#9;&#9;&#9;c0.274,0,0.885-0.278,1.221-0.312c1.588-0.21,2.901,1.253,2.901,2.82c0,1.532-1.191,3.134-3.083,3.134&#10;&#9;&#9;&#9;c-1.955,0-3.603-1.532-3.664-3.726c-0.061-2.333,1.282-4.701,3.174-5.886c1.007-0.731,3.206-1.393,4.274-1.393&#10;&#9;&#9;&#9;c1.955,0,3.695,0.384,5.527,2.125c1.832,1.74,2.442,3.168,2.717,6.094c0.397,4.145-2.626,9.576-5.557,12.328&#10;&#9;&#9;&#9;c-2.747,2.576-6.961,5.188-10.747,7.278L68.739,332.801z" clip-rule="evenodd" fill-rule="evenodd"/>
		<path d="M88.188,307.339c1.008,0,1.649,0.824,1.649,1.649&#10;&#9;&#9;&#9;c0,0.854-0.641,1.678-1.649,1.678c-1.069,0-1.679-0.824-1.679-1.678C86.509,308.163,87.119,307.339,88.188,307.339z" clip-rule="evenodd" fill-rule="evenodd"/>
		<path d="M88.188,316.186c1.008,0,1.649,0.825,1.649,1.649c0,0.855-0.641,1.68-1.649,1.68&#10;&#9;&#9;&#9;c-1.069,0-1.679-0.824-1.679-1.68C86.509,317.011,87.119,316.186,88.188,316.186z" clip-rule="evenodd" fill-rule="evenodd"/>
	</g>
	<g>
		<g>
			<g>
				<polygon points="716.389,262.437 57.129,262.437 57.129,261.176 716.389,261.176 716.389,262.437"/>
			</g>
			<g>
				<polygon points="716.389,271.152 57.129,271.152 57.129,269.892 716.389,269.892 716.389,271.152"/>
			</g>
			<g>
				<polygon points="716.389,253.721 57.129,253.721 57.129,252.46 716.389,252.46 716.389,253.721"/>
			</g>
			<g>
				<polygon points="716.389,245.005 57.129,245.005 57.129,243.744 716.389,243.744 716.389,245.005"/>
			</g>
			<g>
				<polygon points="57.76,339.297 56.499,339.297 56.499,235.029 716.389,235.029 716.389,236.29 57.76,236.29 57.76,339.297"/>
			</g>
		</g>
		<g>
			<g>
				<polygon points="716.389,331.211 57.129,331.211 57.129,329.951 716.389,329.951 716.389,331.211"/>
			</g>
			<g>
				<polygon points="716.389,339.927 57.129,339.927 57.129,338.667 716.389,338.667 716.389,339.927"/>
			</g>
			<g>
				<polygon points="716.389,322.496 57.129,322.496 57.129,321.235 716.389,321.235 716.389,322.496"/>
			</g>
			<g>
				<polygon points="716.389,313.78 57.129,313.78 57.129,312.52 716.389,312.52 716.389,313.78"/>
			</g>
			<g>
				<polygon points="716.389,305.064 57.129,305.064 57.129,303.804 716.389,303.804 716.389,305.064"/>
			</g>
		</g>
	</g>
	<path d="M81.525,252.357c0.457-0.07,0.914-0.106,1.373-0.106&#10;&#9;&#9;c4.471-0.035,7.604,3.979,7.569,8.52c0,3.767-2.253,6.549-5.598,8.169l1.408,7.146c0.105,0.598,0.105,1.126,0.105,1.619&#10;&#9;&#9;c0,3.59-2.253,5.915-5.984,6.302c-2.923,0.316-6.268-1.69-6.584-4.859c-0.211-2.112,1.232-4.294,3.274-4.542&#10;&#9;&#9;c1.866-0.21,3.556,1.444,3.626,3.381c0.105,2.709-2.569,3.59-3.59,3.343c0.105,1.198,2.182,1.654,3.168,1.55&#10;&#9;&#9;c3.273-0.387,4.823-2.395,4.928-5.247c0-0.774-0.07-1.689-0.281-2.569l-1.198-5.633c-1.126,0.317-2.217,0.458-3.273,0.458&#10;&#9;&#9;c-6.056,0-10.984-5.14-11.478-11.793c-0.527-6.866,5-11.97,9.26-16.335c-0.634-2.606-1.021-5.142-1.021-7.816&#10;&#9;&#9;c0-3.204,1.478-9.752,4.823-10.984c1.443-0.563,4.119,6.513,4.048,10.421c-0.069,4.929-2.323,9.646-5.773,13.061L81.525,252.357z&#10;&#9;&#9; M81.207,256.547c-1.971,0.598-3.661,2.641-3.625,4.824c0,1.865,1.231,3.062,2.781,3.801c0.176,0.071,0.246,0.212,0.246,0.354&#10;&#9;&#9;c0,0.21-0.246,0.387-0.492,0.352c-2.676-0.916-4.578-3.521-4.542-6.479c0-2.887,2.289-5.808,4.857-6.759l-1.055-5.316&#10;&#9;&#9;c-3.733,3.309-7.851,7.252-7.887,12.709c0,5.493,4.648,8.871,9.683,8.661c0.809-0.035,1.583-0.176,2.359-0.423L81.207,256.547z&#10;&#9;&#9; M84.657,230.425c-0.035-1.126-0.704-2.253-1.937-2.253c-2.957,0.598-4.013,5.667-4.083,8.202c0,1.479,0.246,2.993,0.598,4.437&#10;&#9;&#9;C82.053,238.381,84.799,234.403,84.657,230.425z M84.657,267.919c2.112-1.127,3.557-3.416,3.45-5.951&#10;&#9;&#9;c-0.246-3.238-2.64-5.598-5.773-5.563L84.657,267.919z" clip-rule="evenodd" fill-rule="evenodd"/>
	<g>
		<path d="M54.208,337.936v1.969c-1.795-0.413-3.439-1.293-4.932-2.644c-1.493-1.35-2.774-3.009-3.845-4.978&#10;&#9;&#9;&#9;s-1.909-4.163-2.515-6.582c-0.606-2.419-0.908-4.904-0.908-7.453c0-1.237,0.075-2.7,0.227-4.388&#10;&#9;&#9;&#9;c0.151-1.687,0.325-3.375,0.52-5.063c0.195-1.688,0.368-3.282,0.519-4.781c0.151-1.5,0.227-2.681,0.227-3.543&#10;&#9;&#9;&#9;c0-1.313-0.173-2.625-0.519-3.938c-0.346-1.313-0.838-2.512-1.476-3.6c-0.639-1.087-1.412-2.015-2.32-2.784&#10;&#9;&#9;&#9;c-0.909-0.768-1.936-1.284-3.083-1.547v-2.307c1.146-0.262,2.179-0.768,3.099-1.519c0.919-0.75,1.697-1.668,2.336-2.757&#10;&#9;&#9;&#9;c0.638-1.087,1.125-2.287,1.46-3.599c0.335-1.313,0.503-2.645,0.503-3.994c0-0.9-0.076-2.091-0.227-3.573&#10;&#9;&#9;&#9;c-0.151-1.481-0.324-3.056-0.519-4.725c-0.195-1.668-0.368-3.347-0.52-5.034c-0.151-1.688-0.227-3.169-0.227-4.444&#10;&#9;&#9;&#9;c0-2.549,0.302-5.034,0.908-7.453c0.605-2.419,1.444-4.604,2.515-6.553s2.352-3.6,3.845-4.951c1.493-1.35,3.136-2.23,4.932-2.644&#10;&#9;&#9;&#9;v1.969c-1.276,0.526-2.374,1.229-3.293,2.109c-0.92,0.882-1.676,1.894-2.271,3.038c-0.595,1.144-1.038,2.382-1.33,3.712&#10;&#9;&#9;&#9;c-0.292,1.332-0.438,2.71-0.438,4.135c0,0.976,0.075,2.25,0.227,3.825c0.151,1.576,0.319,3.216,0.503,4.922&#10;&#9;&#9;&#9;c0.184,1.707,0.351,3.385,0.503,5.035c0.151,1.651,0.227,3.057,0.227,4.219c0,1.876-0.2,3.75-0.6,5.625&#10;&#9;&#9;&#9;c-0.4,1.875-1.001,3.666-1.801,5.372c-0.801,1.707-1.801,3.272-3.001,4.697c-1.201,1.426-2.59,2.625-4.169,3.601&#10;&#9;&#9;&#9;c1.557,0.975,2.931,2.203,4.121,3.684c1.189,1.482,2.19,3.094,3.001,4.838c0.811,1.744,1.421,3.563,1.833,5.457&#10;&#9;&#9;&#9;c0.411,1.894,0.616,3.76,0.616,5.597c0,1.163-0.076,2.569-0.227,4.219c-0.152,1.651-0.319,3.329-0.503,5.035&#10;&#9;&#9;&#9;c-0.184,1.706-0.352,3.347-0.503,4.922c-0.152,1.576-0.227,2.85-0.227,3.825c0,1.425,0.146,2.803,0.438,4.134&#10;&#9;&#9;&#9;s0.735,2.569,1.33,3.713c0.595,1.144,1.352,2.156,2.271,3.038C51.834,336.65,52.932,337.374,54.208,337.936z"/>
	</g>
</g>
<g>
	<g>
		<path d="M68.739,491.179c4.702-3.587,7.694-5.572,10.32-10.796&#10;&#9;&#9;&#9;c1.129-2.264,1.954-5.502,1.954-7.87c0-1.915-0.092-3.343-0.733-4.735c-0.733-1.603-2.29-2.856-4.305-2.646&#10;&#9;&#9;&#9;c-1.343,0.138-2.961,0.696-3.634,1.532c-0.366,0.451-0.701,1.078-0.916,1.601c-0.184,0.453,0,1.149,0.733,1.183&#10;&#9;&#9;&#9;c0.274,0,0.885-0.277,1.221-0.312c1.588-0.21,2.901,1.253,2.901,2.819c0,1.533-1.191,3.134-3.083,3.134&#10;&#9;&#9;&#9;c-1.955,0-3.603-1.532-3.664-3.726c-0.061-2.333,1.282-4.701,3.174-5.886c1.007-0.731,3.206-1.393,4.274-1.393&#10;&#9;&#9;&#9;c1.955,0,3.695,0.384,5.527,2.125c1.832,1.74,2.442,3.168,2.717,6.094c0.397,4.145-2.626,9.576-5.557,12.327&#10;&#9;&#9;&#9;c-2.747,2.577-6.961,5.189-10.747,7.278L68.739,491.179z" clip-rule="evenodd" fill-rule="evenodd"/>
		<path d="M88.188,465.716c1.008,0,1.649,0.825,1.649,1.649&#10;&#9;&#9;&#9;c0,0.854-0.641,1.679-1.649,1.679c-1.069,0-1.679-0.825-1.679-1.679C86.509,466.541,87.119,465.716,88.188,465.716z" clip-rule="evenodd" fill-rule="evenodd"/>
		<path d="M88.188,474.563c1.008,0,1.649,0.825,1.649,1.649c0,0.855-0.641,1.68-1.649,1.68&#10;&#9;&#9;&#9;c-1.069,0-1.679-0.825-1.679-1.68C86.509,475.388,87.119,474.563,88.188,474.563z" clip-rule="evenodd" fill-rule="evenodd"/>
	</g>
	<g>
		<g>
			<g>
				<polygon points="716.389,420.814 57.129,420.814 57.129,419.553 716.389,419.553 716.389,420.814"/>
			</g>
			<g>
				<polygon points="716.389,429.53 57.129,429.53 57.129,428.269 716.389,428.269 716.389,429.53"/>
			</g>
			<g>
				<polygon points="716.389,412.099 57.129,412.099 57.129,410.838 716.389,410.838 716.389,412.099"/>
			</g>
			<g>
				<polygon points="716.389,403.383 57.129,403.383 57.129,402.122 716.389,402.122 716.389,403.383"/>
			</g>
			<g>
				<polygon points="57.76,497.675 56.499,497.675 56.499,393.407 716.389,393.407 716.389,394.667 57.76,394.667 57.76,497.675"/>
			</g>
		</g>
		<g>
			<g>
				<polygon points="716.389,489.589 57.129,489.589 57.129,488.328 716.389,488.328 716.389,489.589"/>
			</g>
			<g>
				<polygon points="716.389,498.305 57.129,498.305 57.129,497.044 716.389,497.044 716.389,498.305"/>
			</g>
			<g>
				<polygon points="716.389,480.874 57.129,480.874 57.129,479.613 716.389,479.613 716.389,480.874"/>
			</g>
			<g>
				<polygon points="716.389,472.158 57.129,472.158 57.129,470.897 716.389,470.897 716.389,472.158"/>
			</g>
			<g>
				<polygon points="716.389,463.443 57.129,463.443 57.129,462.182 716.389,462.182 716.389,463.443"/>
			</g>
		</g>
	</g>
	<path d="M81.525,410.735c0.457-0.07,0.914-0.105,1.373-0.105&#10;&#9;&#9;c4.471-0.035,7.604,3.979,7.569,8.52c0,3.767-2.253,6.548-5.598,8.169l1.408,7.146c0.105,0.598,0.105,1.127,0.105,1.619&#10;&#9;&#9;c0,3.59-2.253,5.915-5.984,6.302c-2.923,0.316-6.268-1.69-6.584-4.859c-0.211-2.112,1.232-4.295,3.274-4.542&#10;&#9;&#9;c1.866-0.209,3.556,1.444,3.626,3.382c0.105,2.709-2.569,3.59-3.59,3.344c0.105,1.197,2.182,1.654,3.168,1.549&#10;&#9;&#9;c3.273-0.387,4.823-2.395,4.928-5.247c0-0.774-0.07-1.688-0.281-2.569l-1.198-5.632c-1.126,0.316-2.217,0.457-3.273,0.457&#10;&#9;&#9;c-6.056,0-10.984-5.14-11.478-11.793c-0.527-6.866,5-11.97,9.26-16.335c-0.634-2.606-1.021-5.142-1.021-7.816&#10;&#9;&#9;c0-3.204,1.478-9.752,4.823-10.985c1.443-0.563,4.119,6.514,4.048,10.421c-0.069,4.929-2.323,9.646-5.773,13.061L81.525,410.735z&#10;&#9;&#9; M81.207,414.924c-1.971,0.598-3.661,2.642-3.625,4.824c0,1.865,1.231,3.062,2.781,3.801c0.176,0.071,0.246,0.212,0.246,0.353&#10;&#9;&#9;c0,0.21-0.246,0.388-0.492,0.353c-2.676-0.916-4.578-3.521-4.542-6.479c0-2.888,2.289-5.809,4.857-6.76l-1.055-5.316&#10;&#9;&#9;c-3.733,3.31-7.851,7.253-7.887,12.709c0,5.492,4.648,8.871,9.683,8.661c0.809-0.035,1.583-0.176,2.359-0.422L81.207,414.924z&#10;&#9;&#9; M84.657,388.803c-0.035-1.126-0.704-2.253-1.937-2.253c-2.957,0.598-4.013,5.667-4.083,8.202c0,1.479,0.246,2.992,0.598,4.437&#10;&#9;&#9;C82.053,396.759,84.799,392.781,84.657,388.803z M84.657,426.296c2.112-1.127,3.557-3.415,3.45-5.95&#10;&#9;&#9;c-0.246-3.237-2.64-5.598-5.773-5.563L84.657,426.296z" clip-rule="evenodd" fill-rule="evenodd"/>
	<g>
		<path d="M54.208,496.314v1.969c-1.795-0.414-3.439-1.293-4.932-2.644c-1.493-1.351-2.774-3.01-3.845-4.979&#10;&#9;&#9;&#9;c-1.071-1.969-1.909-4.163-2.515-6.582c-0.606-2.418-0.908-4.905-0.908-7.454c0-1.237,0.075-2.7,0.227-4.388&#10;&#9;&#9;&#9;c0.151-1.687,0.325-3.375,0.52-5.063c0.195-1.688,0.368-3.282,0.519-4.781c0.151-1.5,0.227-2.681,0.227-3.544&#10;&#9;&#9;&#9;c0-1.313-0.173-2.625-0.519-3.938c-0.346-1.313-0.838-2.512-1.476-3.601c-0.639-1.087-1.412-2.015-2.32-2.784&#10;&#9;&#9;&#9;c-0.909-0.768-1.936-1.284-3.083-1.547v-2.306c1.146-0.262,2.179-0.768,3.099-1.52c0.919-0.75,1.697-1.667,2.336-2.756&#10;&#9;&#9;&#9;c0.638-1.088,1.125-2.287,1.46-3.599c0.335-1.313,0.503-2.645,0.503-3.995c0-0.899-0.076-2.091-0.227-3.572&#10;&#9;&#9;&#9;c-0.151-1.481-0.324-3.056-0.519-4.725c-0.195-1.669-0.368-3.347-0.52-5.035c-0.151-1.688-0.227-3.168-0.227-4.444&#10;&#9;&#9;&#9;c0-2.549,0.302-5.034,0.908-7.453c0.605-2.419,1.444-4.604,2.515-6.554c1.071-1.949,2.352-3.6,3.845-4.95&#10;&#9;&#9;&#9;c1.493-1.35,3.136-2.23,4.932-2.644v1.969c-1.276,0.526-2.374,1.229-3.293,2.109c-0.92,0.882-1.676,1.894-2.271,3.038&#10;&#9;&#9;&#9;c-0.595,1.145-1.038,2.382-1.33,3.713s-0.438,2.71-0.438,4.134c0,0.975,0.075,2.25,0.227,3.825&#10;&#9;&#9;&#9;c0.151,1.576,0.319,3.216,0.503,4.921c0.184,1.708,0.351,3.385,0.503,5.035c0.151,1.651,0.227,3.057,0.227,4.219&#10;&#9;&#9;&#9;c0,1.876-0.2,3.751-0.6,5.625c-0.4,1.875-1.001,3.667-1.801,5.372c-0.801,1.707-1.801,3.273-3.001,4.698s-2.59,2.625-4.169,3.601&#10;&#9;&#9;&#9;c1.557,0.975,2.931,2.202,4.121,3.684c1.189,1.482,2.19,3.094,3.001,4.838c0.811,1.744,1.421,3.563,1.833,5.456&#10;&#9;&#9;&#9;c0.411,1.895,0.616,3.76,0.616,5.597c0,1.163-0.076,2.569-0.227,4.219c-0.152,1.651-0.319,3.329-0.503,5.034&#10;&#9;&#9;&#9;c-0.184,1.707-0.352,3.347-0.503,4.922c-0.152,1.576-0.227,2.85-0.227,3.826c0,1.425,0.146,2.803,0.438,4.134&#10;&#9;&#9;&#9;c0.292,1.331,0.735,2.569,1.33,3.712c0.595,1.144,1.352,2.157,2.271,3.039C51.834,495.028,52.932,495.751,54.208,496.314z"/>
	</g>
</g>
<g>
	<g>
		<path d="M68.739,649.556c4.702-3.588,7.694-5.571,10.32-10.796&#10;&#9;&#9;&#9;c1.129-2.264,1.954-5.503,1.954-7.87c0-1.914-0.092-3.342-0.733-4.735c-0.733-1.603-2.29-2.856-4.305-2.646&#10;&#9;&#9;&#9;c-1.343,0.139-2.961,0.696-3.634,1.532c-0.366,0.452-0.701,1.078-0.916,1.602c-0.184,0.453,0,1.148,0.733,1.183&#10;&#9;&#9;&#9;c0.274,0,0.885-0.276,1.221-0.312c1.588-0.21,2.901,1.254,2.901,2.82c0,1.532-1.191,3.134-3.083,3.134&#10;&#9;&#9;&#9;c-1.955,0-3.603-1.532-3.664-3.726c-0.061-2.333,1.282-4.701,3.174-5.886c1.007-0.731,3.206-1.393,4.274-1.393&#10;&#9;&#9;&#9;c1.955,0,3.695,0.384,5.527,2.124c1.832,1.74,2.442,3.169,2.717,6.094c0.397,4.146-2.626,9.576-5.557,12.327&#10;&#9;&#9;&#9;c-2.747,2.577-6.961,5.189-10.747,7.279L68.739,649.556z" clip-rule="evenodd" fill-rule="evenodd"/>
		<path d="M88.188,624.093c1.008,0,1.649,0.825,1.649,1.649&#10;&#9;&#9;&#9;c0,0.854-0.641,1.679-1.649,1.679c-1.069,0-1.679-0.824-1.679-1.679C86.509,624.918,87.119,624.093,88.188,624.093z" clip-rule="evenodd" fill-rule="evenodd"/>
		<path d="M88.188,632.94c1.008,0,1.649,0.824,1.649,1.649c0,0.855-0.641,1.68-1.649,1.68&#10;&#9;&#9;&#9;c-1.069,0-1.679-0.824-1.679-1.68C86.509,633.765,87.119,632.94,88.188,632.94z" clip-rule="evenodd" fill-rule="evenodd"/>
	</g>
	<g>
		<g>
			<g>
				<polygon points="716.389,579.191 57.129,579.191 57.129,577.931 716.389,577.931 716.389,579.191"/>
			</g>
			<g>
				<polygon points="716.389,587.906 57.129,587.906 57.129,586.646 716.389,586.646 716.389,587.906"/>
			</g>
			<g>
				<polygon points="716.389,570.476 57.129,570.476 57.129,569.215 716.389,569.215 716.389,570.476"/>
			</g>
			<g>
				<polygon points="716.389,561.76 57.129,561.76 57.129,560.499 716.389,560.499 716.389,561.76"/>
			</g>
			<g>
				<polygon points="57.76,656.052 56.499,656.052 56.499,551.783 716.389,551.783 716.389,553.044 57.76,553.044 57.76,656.052"/>
			</g>
		</g>
		<g>
			<g>
				<polygon points="716.389,647.966 57.129,647.966 57.129,646.705 716.389,646.705 716.389,647.966"/>
			</g>
			<g>
				<polygon points="716.389,656.683 57.129,656.683 57.129,655.422 716.389,655.422 716.389,656.683"/>
			</g>
			<g>
				<polygon points="716.389,639.251 57.129,639.251 57.129,637.99 716.389,637.99 716.389,639.251"/>
			</g>
			<g>
				<polygon points="716.389,630.534 57.129,630.534 57.129,629.273 716.389,629.273 716.389,630.534"/>
			</g>
			<g>
				<polygon points="716.389,621.819 57.129,621.819 57.129,620.559 716.389,620.559 716.389,621.819"/>
			</g>
		</g>
	</g>
	<path d="M81.525,569.112c0.457-0.07,0.914-0.105,1.373-0.105&#10;&#9;&#9;c4.471-0.036,7.604,3.979,7.569,8.519c0,3.767-2.253,6.549-5.598,8.169l1.408,7.146c0.105,0.598,0.105,1.127,0.105,1.619&#10;&#9;&#9;c0,3.591-2.253,5.915-5.984,6.303c-2.923,0.315-6.268-1.69-6.584-4.859c-0.211-2.112,1.232-4.295,3.274-4.543&#10;&#9;&#9;c1.866-0.209,3.556,1.444,3.626,3.382c0.105,2.71-2.569,3.59-3.59,3.344c0.105,1.197,2.182,1.654,3.168,1.55&#10;&#9;&#9;c3.273-0.388,4.823-2.396,4.928-5.247c0-0.773-0.07-1.688-0.281-2.569l-1.198-5.632c-1.126,0.316-2.217,0.457-3.273,0.457&#10;&#9;&#9;c-6.056,0-10.984-5.14-11.478-11.794c-0.527-6.865,5-11.97,9.26-16.335c-0.634-2.605-1.021-5.141-1.021-7.815&#10;&#9;&#9;c0-3.204,1.478-9.752,4.823-10.984c1.443-0.563,4.119,6.513,4.048,10.421c-0.069,4.929-2.323,9.646-5.773,13.061L81.525,569.112z&#10;&#9;&#9; M81.207,573.301c-1.971,0.599-3.661,2.643-3.625,4.824c0,1.866,1.231,3.063,2.781,3.801c0.176,0.071,0.246,0.212,0.246,0.354&#10;&#9;&#9;c0,0.21-0.246,0.388-0.492,0.353c-2.676-0.916-4.578-3.521-4.542-6.479c0-2.888,2.289-5.809,4.857-6.76l-1.055-5.315&#10;&#9;&#9;c-3.733,3.309-7.851,7.253-7.887,12.709c0,5.492,4.648,8.871,9.683,8.661c0.809-0.035,1.583-0.177,2.359-0.423L81.207,573.301z&#10;&#9;&#9; M84.657,547.18c-0.035-1.126-0.704-2.253-1.937-2.253c-2.957,0.599-4.013,5.666-4.083,8.201c0,1.479,0.246,2.993,0.598,4.438&#10;&#9;&#9;C82.053,555.136,84.799,551.157,84.657,547.18z M84.657,584.673c2.112-1.127,3.557-3.414,3.45-5.95&#10;&#9;&#9;c-0.246-3.237-2.64-5.598-5.773-5.563L84.657,584.673z" clip-rule="evenodd" fill-rule="evenodd"/>
	<g>
		<path d="M54.208,654.69v1.969c-1.795-0.413-3.439-1.293-4.932-2.644s-2.774-3.01-3.845-4.979s-1.909-4.162-2.515-6.581&#10;&#9;&#9;&#9;c-0.606-2.419-0.908-4.905-0.908-7.454c0-1.237,0.075-2.699,0.227-4.388c0.151-1.687,0.325-3.375,0.52-5.062&#10;&#9;&#9;&#9;c0.195-1.688,0.368-3.282,0.519-4.782c0.151-1.499,0.227-2.681,0.227-3.543c0-1.313-0.173-2.625-0.519-3.938&#10;&#9;&#9;&#9;c-0.346-1.313-0.838-2.512-1.476-3.601c-0.639-1.087-1.412-2.015-2.32-2.784c-0.909-0.768-1.936-1.283-3.083-1.547v-2.306&#10;&#9;&#9;&#9;c1.146-0.263,2.179-0.769,3.099-1.52c0.919-0.749,1.697-1.668,2.336-2.757c0.638-1.087,1.125-2.286,1.46-3.599&#10;&#9;&#9;&#9;c0.335-1.313,0.503-2.646,0.503-3.995c0-0.899-0.076-2.091-0.227-3.572c-0.151-1.48-0.324-3.056-0.519-4.725&#10;&#9;&#9;&#9;c-0.195-1.668-0.368-3.347-0.52-5.035c-0.151-1.688-0.227-3.168-0.227-4.443c0-2.55,0.302-5.034,0.908-7.453&#10;&#9;&#9;&#9;c0.605-2.419,1.444-4.604,2.515-6.554c1.071-1.949,2.352-3.6,3.845-4.95s3.136-2.23,4.932-2.644v1.969&#10;&#9;&#9;&#9;c-1.276,0.526-2.374,1.229-3.293,2.108c-0.92,0.883-1.676,1.895-2.271,3.038c-0.595,1.145-1.038,2.382-1.33,3.713&#10;&#9;&#9;&#9;s-0.438,2.71-0.438,4.135c0,0.975,0.075,2.251,0.227,3.825c0.151,1.575,0.319,3.216,0.503,4.922&#10;&#9;&#9;&#9;c0.184,1.707,0.351,3.385,0.503,5.034c0.151,1.651,0.227,3.057,0.227,4.219c0,1.877-0.2,3.752-0.6,5.626&#10;&#9;&#9;&#9;c-0.4,1.875-1.001,3.666-1.801,5.371c-0.801,1.707-1.801,3.273-3.001,4.698c-1.201,1.426-2.59,2.626-4.169,3.601&#10;&#9;&#9;&#9;c1.557,0.976,2.931,2.202,4.121,3.684c1.189,1.482,2.19,3.094,3.001,4.838c0.811,1.744,1.421,3.563,1.833,5.456&#10;&#9;&#9;&#9;c0.411,1.895,0.616,3.761,0.616,5.597c0,1.164-0.076,2.569-0.227,4.22c-0.152,1.651-0.319,3.328-0.503,5.034&#10;&#9;&#9;&#9;c-0.184,1.707-0.352,3.348-0.503,4.922c-0.152,1.576-0.227,2.85-0.227,3.825c0,1.426,0.146,2.803,0.438,4.135&#10;&#9;&#9;&#9;c0.292,1.33,0.735,2.568,1.33,3.712c0.595,1.145,1.352,2.157,2.271,3.039C51.834,653.405,52.932,654.129,54.208,654.69z"/>
	</g>
</g>
<g>
	<g>
		<path d="M68.739,807.934c4.702-3.588,7.694-5.571,10.32-10.796&#10;&#9;&#9;&#9;c1.129-2.264,1.954-5.502,1.954-7.87c0-1.914-0.092-3.342-0.733-4.734c-0.733-1.603-2.29-2.856-4.305-2.647&#10;&#9;&#9;&#9;c-1.343,0.139-2.961,0.697-3.634,1.532c-0.366,0.452-0.701,1.079-0.916,1.602c-0.184,0.453,0,1.148,0.733,1.184&#10;&#9;&#9;&#9;c0.274,0,0.885-0.277,1.221-0.312c1.588-0.211,2.901,1.253,2.901,2.819c0,1.533-1.191,3.134-3.083,3.134&#10;&#9;&#9;&#9;c-1.955,0-3.603-1.532-3.664-3.726c-0.061-2.333,1.282-4.701,3.174-5.886c1.007-0.731,3.206-1.393,4.274-1.393&#10;&#9;&#9;&#9;c1.955,0,3.695,0.384,5.527,2.125c1.832,1.74,2.442,3.168,2.717,6.093c0.397,4.146-2.626,9.576-5.557,12.328&#10;&#9;&#9;&#9;c-2.747,2.577-6.961,5.188-10.747,7.278L68.739,807.934z" clip-rule="evenodd" fill-rule="evenodd"/>
		<path d="M88.188,782.472c1.008,0,1.649,0.824,1.649,1.648&#10;&#9;&#9;&#9;c0,0.854-0.641,1.679-1.649,1.679c-1.069,0-1.679-0.824-1.679-1.679C86.509,783.296,87.119,782.472,88.188,782.472z" clip-rule="evenodd" fill-rule="evenodd"/>
		<path d="M88.188,791.318c1.008,0,1.649,0.825,1.649,1.649c0,0.855-0.641,1.68-1.649,1.68&#10;&#9;&#9;&#9;c-1.069,0-1.679-0.824-1.679-1.68C86.509,792.144,87.119,791.318,88.188,791.318z" clip-rule="evenodd" fill-rule="evenodd"/>
	</g>
	<g>
		<g>
			<g>
				<polygon points="716.389,737.569 57.129,737.569 57.129,736.309 716.389,736.309 716.389,737.569"/>
			</g>
			<g>
				<polygon points="716.389,746.285 57.129,746.285 57.129,745.024 716.389,745.024 716.389,746.285"/>
			</g>
			<g>
				<polygon points="716.389,728.854 57.129,728.854 57.129,727.593 716.389,727.593 716.389,728.854"/>
			</g>
			<g>
				<polygon points="716.389,720.138 57.129,720.138 57.129,718.877 716.389,718.877 716.389,720.138"/>
			</g>
			<g>
				<polygon points="57.76,814.43 56.499,814.43 56.499,710.161 716.389,710.161 716.389,711.422 57.76,711.422 57.76,814.43"/>
			</g>
		</g>
		<g>
			<g>
				<polygon points="716.389,806.344 57.129,806.344 57.129,805.083 716.389,805.083 716.389,806.344"/>
			</g>
			<g>
				<polygon points="716.389,815.061 57.129,815.061 57.129,813.8 716.389,813.8 716.389,815.061"/>
			</g>
			<g>
				<polygon points="716.389,797.629 57.129,797.629 57.129,796.368 716.389,796.368 716.389,797.629"/>
			</g>
			<g>
				<polygon points="716.389,788.913 57.129,788.913 57.129,787.652 716.389,787.652 716.389,788.913"/>
			</g>
			<g>
				<polygon points="716.389,780.198 57.129,780.198 57.129,778.938 716.389,778.938 716.389,780.198"/>
			</g>
		</g>
	</g>
	<path d="M81.525,727.49c0.457-0.07,0.914-0.105,1.373-0.105&#10;&#9;&#9;c4.471-0.035,7.604,3.979,7.569,8.52c0,3.767-2.253,6.548-5.598,8.169l1.408,7.146c0.105,0.599,0.105,1.128,0.105,1.62&#10;&#9;&#9;c0,3.59-2.253,5.914-5.984,6.302c-2.923,0.315-6.268-1.689-6.584-4.859c-0.211-2.112,1.232-4.295,3.274-4.542&#10;&#9;&#9;c1.866-0.21,3.556,1.444,3.626,3.382c0.105,2.709-2.569,3.59-3.59,3.344c0.105,1.197,2.182,1.653,3.168,1.549&#10;&#9;&#9;c3.273-0.387,4.823-2.395,4.928-5.247c0-0.773-0.07-1.688-0.281-2.569l-1.198-5.632c-1.126,0.316-2.217,0.457-3.273,0.457&#10;&#9;&#9;c-6.056,0-10.984-5.14-11.478-11.793c-0.527-6.866,5-11.971,9.26-16.336c-0.634-2.605-1.021-5.141-1.021-7.815&#10;&#9;&#9;c0-3.204,1.478-9.752,4.823-10.984c1.443-0.563,4.119,6.513,4.048,10.421c-0.069,4.93-2.323,9.646-5.773,13.062L81.525,727.49z&#10;&#9;&#9; M81.207,731.68c-1.971,0.598-3.661,2.642-3.625,4.823c0,1.866,1.231,3.063,2.781,3.802c0.176,0.07,0.246,0.212,0.246,0.353&#10;&#9;&#9;c0,0.211-0.246,0.388-0.492,0.353c-2.676-0.916-4.578-3.521-4.542-6.479c0-2.888,2.289-5.809,4.857-6.76l-1.055-5.315&#10;&#9;&#9;c-3.733,3.31-7.851,7.253-7.887,12.709c0,5.492,4.648,8.871,9.683,8.661c0.809-0.035,1.583-0.177,2.359-0.423L81.207,731.68z&#10;&#9;&#9; M84.657,705.558c-0.035-1.126-0.704-2.252-1.937-2.252c-2.957,0.598-4.013,5.666-4.083,8.201c0,1.479,0.246,2.992,0.598,4.437&#10;&#9;&#9;C82.053,713.514,84.799,709.535,84.657,705.558z M84.657,743.052c2.112-1.127,3.557-3.415,3.45-5.95&#10;&#9;&#9;c-0.246-3.237-2.64-5.599-5.773-5.563L84.657,743.052z" clip-rule="evenodd" fill-rule="evenodd"/>
	<g>
		<path d="M54.208,813.068v1.97c-1.795-0.414-3.439-1.294-4.932-2.644c-1.493-1.352-2.774-3.01-3.845-4.979&#10;&#9;&#9;&#9;c-1.071-1.969-1.909-4.162-2.515-6.581c-0.606-2.418-0.908-4.904-0.908-7.453c0-1.237,0.075-2.7,0.227-4.388&#10;&#9;&#9;&#9;s0.325-3.376,0.52-5.063c0.195-1.688,0.368-3.282,0.519-4.782c0.151-1.499,0.227-2.681,0.227-3.543&#10;&#9;&#9;&#9;c0-1.313-0.173-2.625-0.519-3.938c-0.346-1.313-0.838-2.512-1.476-3.601c-0.639-1.087-1.412-2.015-2.32-2.783&#10;&#9;&#9;&#9;c-0.909-0.769-1.936-1.284-3.083-1.547v-2.307c1.146-0.263,2.179-0.769,3.099-1.52c0.919-0.749,1.697-1.667,2.336-2.756&#10;&#9;&#9;&#9;c0.638-1.088,1.125-2.287,1.46-3.6c0.335-1.313,0.503-2.646,0.503-3.994c0-0.9-0.076-2.091-0.227-3.572&#10;&#9;&#9;&#9;c-0.151-1.481-0.324-3.057-0.519-4.725c-0.195-1.669-0.368-3.348-0.52-5.035s-0.227-3.169-0.227-4.444&#10;&#9;&#9;&#9;c0-2.55,0.302-5.034,0.908-7.453c0.605-2.419,1.444-4.604,2.515-6.554c1.071-1.949,2.352-3.6,3.845-4.949&#10;&#9;&#9;&#9;c1.493-1.351,3.136-2.231,4.932-2.645v1.969c-1.276,0.526-2.374,1.229-3.293,2.109c-0.92,0.882-1.676,1.894-2.271,3.037&#10;&#9;&#9;&#9;c-0.595,1.146-1.038,2.383-1.33,3.714s-0.438,2.71-0.438,4.134c0,0.976,0.075,2.251,0.227,3.825&#10;&#9;&#9;&#9;c0.151,1.576,0.319,3.217,0.503,4.922c0.184,1.707,0.351,3.385,0.503,5.035c0.151,1.65,0.227,3.057,0.227,4.219&#10;&#9;&#9;&#9;c0,1.876-0.2,3.751-0.6,5.625c-0.4,1.875-1.001,3.667-1.801,5.372c-0.801,1.706-1.801,3.272-3.001,4.698&#10;&#9;&#9;&#9;c-1.201,1.425-2.59,2.625-4.169,3.6c1.557,0.976,2.931,2.202,4.121,3.684c1.189,1.482,2.19,3.095,3.001,4.838&#10;&#9;&#9;&#9;c0.811,1.744,1.421,3.563,1.833,5.457c0.411,1.895,0.616,3.76,0.616,5.596c0,1.164-0.076,2.569-0.227,4.22&#10;&#9;&#9;&#9;c-0.152,1.651-0.319,3.328-0.503,5.034c-0.184,1.707-0.352,3.348-0.503,4.922c-0.152,1.576-0.227,2.85-0.227,3.826&#10;&#9;&#9;&#9;c0,1.425,0.146,2.803,0.438,4.134s0.735,2.568,1.33,3.713c0.595,1.144,1.352,2.156,2.271,3.038&#10;&#9;&#9;&#9;C51.834,811.783,52.932,812.507,54.208,813.068z"/>
	</g>
</g>
<g>
	<g>
		<path d="M68.739,966.312c4.702-3.588,7.694-5.571,10.32-10.796&#10;&#9;&#9;&#9;c1.129-2.264,1.954-5.502,1.954-7.87c0-1.914-0.092-3.342-0.733-4.734c-0.733-1.603-2.29-2.856-4.305-2.647&#10;&#9;&#9;&#9;c-1.343,0.139-2.961,0.697-3.634,1.532c-0.366,0.452-0.701,1.079-0.916,1.602c-0.184,0.453,0,1.148,0.733,1.184&#10;&#9;&#9;&#9;c0.274,0,0.885-0.277,1.221-0.312c1.588-0.211,2.901,1.253,2.901,2.819c0,1.533-1.191,3.134-3.083,3.134&#10;&#9;&#9;&#9;c-1.955,0-3.603-1.532-3.664-3.726c-0.061-2.333,1.282-4.701,3.174-5.886c1.007-0.731,3.206-1.393,4.274-1.393&#10;&#9;&#9;&#9;c1.955,0,3.695,0.384,5.527,2.125c1.832,1.74,2.442,3.168,2.717,6.093c0.397,4.146-2.626,9.576-5.557,12.328&#10;&#9;&#9;&#9;c-2.747,2.577-6.961,5.188-10.747,7.278L68.739,966.312z" clip-rule="evenodd" fill-rule="evenodd"/>
		<path d="M88.188,940.85c1.008,0,1.649,0.824,1.649,1.648&#10;&#9;&#9;&#9;c0,0.854-0.641,1.679-1.649,1.679c-1.069,0-1.679-0.824-1.679-1.679C86.509,941.674,87.119,940.85,88.188,940.85z" clip-rule="evenodd" fill-rule="evenodd"/>
		<path d="M88.188,949.696c1.008,0,1.649,0.825,1.649,1.649c0,0.855-0.641,1.68-1.649,1.68&#10;&#9;&#9;&#9;c-1.069,0-1.679-0.824-1.679-1.68C86.509,950.521,87.119,949.696,88.188,949.696z" clip-rule="evenodd" fill-rule="evenodd"/>
	</g>
	<g>
		<g>
			<g>
				<polygon points="716.389,895.947 57.129,895.947 57.129,894.687 716.389,894.687 716.389,895.947"/>
			</g>
			<g>
				<polygon points="716.389,904.663 57.129,904.663 57.129,903.402 716.389,903.402 716.389,904.663"/>
			</g>
			<g>
				<polygon points="716.389,887.231 57.129,887.231 57.129,885.971 716.389,885.971 716.389,887.231"/>
			</g>
			<g>
				<polygon points="716.389,878.516 57.129,878.516 57.129,877.255 716.389,877.255 716.389,878.516"/>
			</g>
			<g>
				<polygon points="57.76,972.808 56.499,972.808 56.499,868.539 716.389,868.539 716.389,869.8 57.76,869.8 57.76,972.808"/>
			</g>
		</g>
		<g>
			<g>
				<polygon points="716.389,964.722 57.129,964.722 57.129,963.461 716.389,963.461 716.389,964.722"/>
			</g>
			<g>
				<polygon points="716.389,973.438 57.129,973.438 57.129,972.178 716.389,972.178 716.389,973.438"/>
			</g>
			<g>
				<polygon points="716.389,956.007 57.129,956.007 57.129,954.746 716.389,954.746 716.389,956.007"/>
			</g>
			<g>
				<polygon points="716.389,947.291 57.129,947.291 57.129,946.03 716.389,946.03 716.389,947.291"/>
			</g>
			<g>
				<polygon points="716.389,938.576 57.129,938.576 57.129,937.315 716.389,937.315 716.389,938.576"/>
			</g>
		</g>
	</g>
	<path d="M81.525,885.868c0.457-0.07,0.914-0.105,1.373-0.105&#10;&#9;&#9;c4.471-0.035,7.604,3.979,7.569,8.52c0,3.767-2.253,6.548-5.598,8.169l1.408,7.146c0.105,0.599,0.105,1.128,0.105,1.62&#10;&#9;&#9;c0,3.59-2.253,5.914-5.984,6.302c-2.923,0.315-6.268-1.689-6.584-4.859c-0.211-2.112,1.232-4.295,3.274-4.542&#10;&#9;&#9;c1.866-0.21,3.556,1.444,3.626,3.382c0.105,2.709-2.569,3.59-3.59,3.344c0.105,1.197,2.182,1.653,3.168,1.549&#10;&#9;&#9;c3.273-0.387,4.823-2.395,4.928-5.247c0-0.773-0.07-1.688-0.281-2.569l-1.198-5.632c-1.126,0.316-2.217,0.457-3.273,0.457&#10;&#9;&#9;c-6.056,0-10.984-5.14-11.478-11.793c-0.527-6.866,5-11.971,9.26-16.336c-0.634-2.605-1.021-5.141-1.021-7.815&#10;&#9;&#9;c0-3.204,1.478-9.752,4.823-10.984c1.443-0.563,4.119,6.513,4.048,10.421c-0.069,4.93-2.323,9.646-5.773,13.062L81.525,885.868z&#10;&#9;&#9; M81.207,890.058c-1.971,0.598-3.661,2.642-3.625,4.823c0,1.866,1.231,3.063,2.781,3.802c0.176,0.07,0.246,0.212,0.246,0.353&#10;&#9;&#9;c0,0.211-0.246,0.388-0.492,0.353c-2.676-0.916-4.578-3.521-4.542-6.479c0-2.888,2.289-5.809,4.857-6.76l-1.055-5.315&#10;&#9;&#9;c-3.733,3.31-7.851,7.253-7.887,12.709c0,5.492,4.648,8.871,9.683,8.661c0.809-0.035,1.583-0.177,2.359-0.423L81.207,890.058z&#10;&#9;&#9; M84.657,863.936c-0.035-1.126-0.704-2.252-1.937-2.252c-2.957,0.598-4.013,5.666-4.083,8.201c0,1.479,0.246,2.992,0.598,4.437&#10;&#9;&#9;C82.053,871.892,84.799,867.913,84.657,863.936z M84.657,901.43c2.112-1.127,3.557-3.415,3.45-5.95&#10;&#9;&#9;c-0.246-3.237-2.64-5.599-5.773-5.563L84.657,901.43z" clip-rule="evenodd" fill-rule="evenodd"/>
	<g>
		<path d="M54.208,971.446v1.97c-1.795-0.414-3.439-1.294-4.932-2.644c-1.493-1.352-2.774-3.01-3.845-4.979&#10;&#9;&#9;&#9;c-1.071-1.969-1.909-4.162-2.515-6.581c-0.606-2.418-0.908-4.904-0.908-7.453c0-1.237,0.075-2.7,0.227-4.388&#10;&#9;&#9;&#9;s0.325-3.376,0.52-5.063c0.195-1.688,0.368-3.282,0.519-4.782c0.151-1.499,0.227-2.681,0.227-3.543&#10;&#9;&#9;&#9;c0-1.313-0.173-2.625-0.519-3.938c-0.346-1.313-0.838-2.512-1.476-3.601c-0.639-1.087-1.412-2.015-2.32-2.783&#10;&#9;&#9;&#9;c-0.909-0.769-1.936-1.284-3.083-1.547v-2.307c1.146-0.263,2.179-0.769,3.099-1.52c0.919-0.749,1.697-1.667,2.336-2.756&#10;&#9;&#9;&#9;c0.638-1.088,1.125-2.287,1.46-3.6c0.335-1.313,0.503-2.645,0.503-3.994c0-0.9-0.076-2.091-0.227-3.572&#10;&#9;&#9;&#9;c-0.151-1.481-0.324-3.057-0.519-4.725c-0.195-1.669-0.368-3.348-0.52-5.035s-0.227-3.169-0.227-4.444&#10;&#9;&#9;&#9;c0-2.55,0.302-5.034,0.908-7.453c0.605-2.419,1.444-4.604,2.515-6.554c1.071-1.949,2.352-3.6,3.845-4.949&#10;&#9;&#9;&#9;c1.493-1.351,3.136-2.231,4.932-2.645v1.969c-1.276,0.526-2.374,1.229-3.293,2.109c-0.92,0.882-1.676,1.894-2.271,3.037&#10;&#9;&#9;&#9;c-0.595,1.146-1.038,2.383-1.33,3.714s-0.438,2.71-0.438,4.134c0,0.976,0.075,2.251,0.227,3.825&#10;&#9;&#9;&#9;c0.151,1.576,0.319,3.217,0.503,4.922c0.184,1.707,0.351,3.385,0.503,5.035c0.151,1.65,0.227,3.057,0.227,4.219&#10;&#9;&#9;&#9;c0,1.876-0.2,3.751-0.6,5.625c-0.4,1.876-1.001,3.667-1.801,5.372c-0.801,1.706-1.801,3.272-3.001,4.698&#10;&#9;&#9;&#9;c-1.201,1.425-2.59,2.625-4.169,3.6c1.557,0.976,2.931,2.202,4.121,3.684c1.189,1.482,2.19,3.095,3.001,4.838&#10;&#9;&#9;&#9;c0.811,1.744,1.421,3.563,1.833,5.457c0.411,1.895,0.616,3.76,0.616,5.596c0,1.164-0.076,2.569-0.227,4.22&#10;&#9;&#9;&#9;c-0.152,1.651-0.319,3.328-0.503,5.034c-0.184,1.707-0.352,3.348-0.503,4.922c-0.152,1.576-0.227,2.85-0.227,3.826&#10;&#9;&#9;&#9;c0,1.425,0.146,2.803,0.438,4.134s0.735,2.568,1.33,3.713c0.595,1.144,1.352,2.156,2.271,3.038&#10;&#9;&#9;&#9;C51.834,970.161,52.932,970.885,54.208,971.446z"/>
	</g>
</g>
</svg>